{"title":"Caroline And Jackie 2012 WEBRip x264 AC3-INFERNO","uid":8480217,"size":1055629436,"categoryP":"video","categoryS":"movies","magnet":"?xt=urn:btih:b5b244110147c563ed72af285dd793e594445893&amp;dn=Caroline+And+Jackie+2012+WEBRip+x264+AC3-INFERNO&amp;tr=udp%3A%2F%2Ftracker.openbittorrent.com%3A80&amp;tr=udp%3A%2F%2Fopen.demonii.com%3A1337&amp;tr=udp%3A%2F%2Ftracker.coppersurfer.tk%3A6969&amp;tr=udp%3A%2F%2Fexodus.desync.com%3A6969","seeders":0,"leechers":1,"uploader":"R0thschild","files":9,"time":1368716594,"description":"              ***********************************************\n\n                PublicHash - Largest Bittorrent Community\n      \n                         &lt;a href=&quot; http://publichash.com/&quot; rel=&quot;nofollow&quot; target=&quot;_NEW&quot;&gt; http://publichash.com/&lt;/a&gt;\n    \n              ***********************************************\n\nFormat: Matroska\nFormat version: Version 4 / Version 2\nFile size: 974 MiB\nDuration: 1h 25mn\nOverall bit rate: 1 599 Kbps\nEncoded date: UTC 2013-05-15 22:38:44\nWriting application: mkvmerge v6.2.0 ('Promised Land') built on Apr 28 2013 12:22:01\nWriting library: libebml v1.3.0 + libmatroska v1.4.0\n\nVideo\nID: 1\nFormat: AVC\nFormat/Info: Advanced Video Codec\nFormat profile: &lt;a class=&quot;__cf_email__&quot; href=&quot;/cdn-cgi/l/email-protection&quot; data-cfemail=&quot;88c0e1efe0c8c4bca6b9&quot;&gt;[email&amp;#160;protected]&lt;/a&gt;&lt;script data-cfhash='f9e31' type=&quot;text/javascript&quot;&gt;\n/* &lt;![CDATA[ */!function(){try{var t=&quot;currentScript&quot;in document?document.currentScript:function(){for(var t=document.getElementsByTagName(&quot;script&quot;),e=t.length;e--;)if(t[e].getAttribute(&quot;data-cfhash&quot;))return t[e]}();if(t&amp;&amp;t.previousSibling){var e,r,n,i,c=t.previousSibling,a=c.getAttribute(&quot;data-cfemail&quot;);if(a){for(e=&quot;&quot;,r=parseInt(a.substr(0,2),16),n=2;a.length-n;n+=2)i=parseInt(a.substr(n,2),16)^r,e+=String.fromCharCode(i);e=document.createTextNode(e),c.parentNode.replaceChild(e,c)}t.parentNode.removeChild(t);}}catch(u){}}()/* ]]&gt; */&lt;/script&gt;\nFormat settings, CABAC: Yes\nFormat settings, ReFrames: 5 frames\nCodec ID: V_MPEG4/ISO/AVC\nDuration: 1h 25mn\nBit rate: 1 149 Kbps\nWidth: 720 pixels\nHeight: 384 pixels\nDisplay aspect ratio: 1.85:1\nFrame rate mode: Constant\nFrame rate: 23.976 fps\nColor space: YUV\nChroma subsampling: 4:2:0\nBit depth: 8 bits\nScan type: Progressive\nBits/(Pixel*Frame): 0.173\nStream size: 682 MiB (70%)\nWriting library: x264 core 130 r2273 b3065e6\nEncoding settings: cabac=1 / ref=5 / deblock=1:0:0 / analyse=0x3:0x113\n/ me=umh / subme=11 / psy=1 / psy_rd=1.00:0.15 / mixed_ref=1 / me_range=16 \n/ chroma_me=1\n/ trellis=2 / 8x8dct=1 / cqm=0 / deadzone=21,11 / fast_pskip=1 \n/ chroma_qp_offset=-3 / threads=9\n/ lookahead_threads=1 / sliced_threads=0 / nr=0 / decimate=1 \n/ interlaced=0 / bluray_compat=0\n/ constrained_intra=0 / bframes=3 / b_pyramid=2 / b_adapt=2 / b_bias=0 \n/ direct=3 / weightb=1\n/ open_gop=0 / weightp=2 / keyint=240 / keyint_min=23 / scenecut=40 \n/ intra_refresh=0\n/ rc_lookahead=80 / rc=2pass / mbtree=1 / bitrate=1149 / ratetol=1.0 \n/ qcomp=0.60 / qpmin=0\n/ qpmax=69 / qpstep=4 / cplxblur=20.0 / qblur=0.5 / vbv_maxrate=31250 \n/ vbv_bufsize=31250\n/ nal_hrd=none / ip_ratio=1.40 / aq=1:1.00\nDefault: Yes\nForced: No\n\nAudio\nID: 2\nFormat: AC-3\nFormat/Info: Audio Coding 3\nMode extension: CM (complete main)\nFormat settings, Endianness: Big\nCodec ID: A_AC3\nDuration: 1h 25mn\nBit rate mode: Constant\nBit rate: 448 Kbps\nChannel(s): 6 channels\nChannel positions: Front: L C R, Side: L R, LFE\nSampling rate: 48.0 KHz\nBit depth: 16 bits\nCompression mode: Lossy\nStream size: 273 MiB (28%)\nLanguage: English\nDefault: Yes\nForced: No\n\nText\nID: 3\nFormat: UTF-8\nCodec ID: S_TEXT/UTF8\nCodec ID/Info: UTF-8 Plain Text\nLanguage: English\nDefault: Yes\nForced: No\n\nMenu\n00:00:00.000: Chapter 1\n00:05:00.000: Chapter 2\n00:10:00.000: Chapter 3\n00:15:00.000: Chapter 4\n00:20:00.000: Chapter 5\n00:25:00.000: Chapter 6\n00:30:00.000: Chapter 7\n00:35:00.000: Chapter 8\n00:40:00.000: Chapter 9\n00:45:00.000: Chapter 10\n00:50:00.000: Chapter 11\n00:55:00.000: Chapter 12\n01:00:00.000: Chapter 13\n01:05:00.000: Chapter 14\n01:10:00.000: Chapter 15\n01:15:00.000: Chapter 16\n01:20:00.000: Chapter 17\n01:25:00.000: Chapter 18\nIMDb Rating: 6.4/10\n\nIMDB link: http://www.imdb.com/title/tt1711016/?ref_=sr_5","torrent":{"xt":"urn:btih:b5b244110147c563ed72af285dd793e594445893","amp;dn":"Caroline+And+Jackie+2012+WEBRip+x264+AC3-INFERNO","amp;tr":["udp%3A%2F%2Ftracker.openbittorrent.com%3A80","udp%3A%2F%2Fopen.demonii.com%3A1337","udp%3A%2F%2Ftracker.coppersurfer.tk%3A6969","udp%3A%2F%2Fexodus.desync.com%3A6969"],"infoHash":"b5b244110147c563ed72af285dd793e594445893","infoHashBuffer":{"type":"Buffer","data":[181,178,68,17,1,71,197,99,237,114,175,40,93,215,147,229,148,68,88,147]},"announce":[],"urlList":[]}}